<svg width="33" height="29" viewBox="0 0 33 29" fill="none" xmlns="http://www.w3.org/2000/svg">
<path fill-rule="evenodd" clip-rule="evenodd" d="M9.66665 18.3333C14.4531 18.3333 18.3333 14.4531 18.3333 9.66666C18.3333 4.88021 14.4531 1.00001 9.66665 1.00001C4.88019 1.00001 1 4.88021 1 9.66666C1 14.4531 4.88019 18.3333 9.66665 18.3333ZM9.66665 19.3333C15.0054 19.3333 19.3333 15.0054 19.3333 9.66666C19.3333 4.32792 15.0054 1.35835e-05 9.66665 1.35835e-05C4.32791 1.35835e-05 0 4.32792 0 9.66666C0 15.0054 4.32791 19.3333 9.66665 19.3333ZM22.5556 18.3333C27.342 18.3333 31.2222 14.4531 31.2222 9.66665C31.2222 4.88019 27.342 1 22.5556 1C17.7691 1 13.8889 4.88019 13.8889 9.66665C13.8889 14.4531 17.7691 18.3333 22.5556 18.3333ZM22.5556 19.3333C27.8943 19.3333 32.2222 15.0054 32.2222 9.66665C32.2222 4.32791 27.8943 0 22.5556 0C17.2168 0 12.8889 4.32791 12.8889 9.66665C12.8889 15.0054 17.2168 19.3333 22.5556 19.3333ZM16.111 28C20.8975 28 24.7777 24.1198 24.7777 19.3333C24.7777 14.5468 20.8975 10.6666 16.111 10.6666C11.3246 10.6666 7.44439 14.5468 7.44439 19.3333C7.44439 24.1198 11.3246 28 16.111 28ZM16.111 29C21.4498 29 25.7777 24.672 25.7777 19.3333C25.7777 13.9946 21.4498 9.66665 16.111 9.66665C10.7723 9.66665 6.44439 13.9946 6.44439 19.3333C6.44439 24.672 10.7723 29 16.111 29Z" fill="#FFA800"/>
</svg>
